<svg  viewBox="0 0 40 41" fill="none" xmlns="http://www.w3.org/2000/svg">
<path d="M0.5 20.2829C0.5 24.1735 1.62103 27.8004 3.53339 30.8338H36.9666C38.879 27.8004 40 24.1735 40 20.2829C40 16.3922 38.879 12.7653 36.9666 9.73193H3.53339C1.62103 12.7653 0.5 16.3922 0.5 20.2829Z" fill="#FFCE31"/>
<path d="M37.0343 9.73205C33.5393 4.19282 27.3407 0.5 20.2847 0.5C13.2288 0.5 7.03015 4.19282 3.53516 9.73205H37.0343ZM3.53516 30.8339C7.03015 36.3731 13.2288 40.0659 20.2847 40.0659C27.3407 40.0659 33.5393 36.3731 37.0343 30.8339H3.53516Z" fill="#ED4C5C"/>
<path d="M5.25 18.1064H7.36018V19.2934H5.25V18.1064ZM5.25 26.811H7.42613V27.932H5.25V26.811Z" fill="#C8B100"/>
<path d="M5.04847 24.9648C4.85064 25.0967 4.71875 25.2286 4.71875 25.2946C4.71875 25.3605 4.78469 25.4264 4.91658 25.4924C5.04847 25.5583 5.18035 25.6902 5.11441 25.8221C5.2463 25.6902 5.31224 25.5583 5.31224 25.4264C5.31224 25.2286 5.18035 25.0308 5.04847 24.9648Z" fill="#ED4C5C"/>
<path d="M5.58008 19.2939H7.09677V26.8115H5.58008V19.2939Z" fill="white"/>
<path d="M8.67538 22.0634C8.34567 21.9315 7.75218 21.7996 7.09274 21.7996C6.89491 21.7996 6.63114 21.7996 6.36737 21.8656C5.44416 21.9975 4.71879 22.3931 4.78473 22.6569L4.45501 21.9315C4.38907 21.6018 5.18039 21.2062 6.16954 21.0083C6.49926 20.9424 6.82897 20.9424 7.09274 20.9424C7.75218 20.9424 8.34567 21.0083 8.67538 21.1402V22.0634Z" fill="#ED4C5C"/>
<path d="M5.57889 23.0525C5.18323 23.0525 4.85352 22.9207 4.85352 22.7228C4.85352 22.5909 4.9854 22.3931 5.24917 22.2612H5.64483L5.57889 23.0525ZM7.09559 22.4591C7.35936 22.525 7.55719 22.5909 7.68907 22.6569C7.75502 22.7228 7.49124 22.9866 7.09559 23.1844V22.4591Z" fill="#ED4C5C"/>
<path d="M4.58636 24.5032C4.52042 24.3713 4.98202 24.1075 5.57551 23.9097C5.83928 23.8437 6.03711 23.7118 6.36683 23.5799C7.15815 23.2502 7.81758 22.7886 7.68569 22.6567L7.81758 23.4481C7.88352 23.5799 7.35598 23.9756 6.56466 24.3713C6.30088 24.5032 5.83928 24.701 5.57551 24.7669C5.11391 24.8988 4.71825 25.1626 4.71825 25.2285L4.58636 24.5032Z" fill="#ED4C5C"/>
<path d="M19.4273 18.1064H21.5375V19.2934H19.4273V18.1064ZM19.3613 26.811H21.5375V27.932H19.3613V26.811Z" fill="#C8B100"/>
<path d="M21.7325 24.9648C21.9304 25.0967 22.0622 25.2286 22.0622 25.2946C22.0622 25.3605 21.9963 25.4264 21.8644 25.4924C21.7325 25.6243 21.6006 25.8221 21.6666 25.8881C21.5347 25.7562 21.4688 25.6243 21.4688 25.4924C21.4688 25.2286 21.6006 25.0308 21.7325 24.9648Z" fill="#ED4C5C"/>
<path d="M19.6914 19.2939H21.2081V26.8115H19.6914V19.2939Z" fill="white"/>
<path d="M18.1035 22.0634C18.4332 21.9315 19.0267 21.7996 19.6862 21.7996C19.884 21.7996 20.1478 21.7996 20.4115 21.8656C21.3347 21.9975 22.0601 22.3931 21.9942 22.6569L22.3239 21.8656C22.3898 21.5359 21.5985 21.1402 20.6094 20.9424H19.6862C19.0267 20.9424 18.4332 21.0083 18.1035 21.1402V22.0634Z" fill="#ED4C5C"/>
<path d="M21.2023 23.0525C21.598 23.0525 21.9277 22.9207 21.9277 22.7228C21.9277 22.5909 21.7958 22.3931 21.532 22.2612H21.1364L21.2023 23.0525ZM19.6856 22.4591C19.4218 22.525 19.224 22.5909 19.0921 22.6569C19.0262 22.7228 19.29 22.9866 19.6856 23.1844V22.4591Z" fill="#ED4C5C"/>
<path d="M22.1937 24.5041C22.2596 24.3722 21.798 24.1084 21.2045 23.9106C20.9408 23.8446 20.7429 23.7127 20.4132 23.5809C19.6219 23.2511 18.9625 22.7895 19.0943 22.6577L18.9625 23.449C18.8965 23.5809 19.4241 23.9765 20.2154 24.3722C20.4792 24.5041 20.9408 24.7019 21.2045 24.7678C21.6661 24.8997 22.0618 25.2294 21.9959 25.2954L22.1937 24.5041ZM13.3573 13.8872C14.6102 13.8872 17.182 14.151 18.1052 15.0742C17.1161 17.4481 15.5334 16.459 13.3573 16.459C11.2471 16.459 9.59852 17.4481 8.60938 15.0742C9.53258 14.151 12.0384 13.8872 13.3573 13.8872Z" fill="#ED4C5C"/>
<path d="M16.5877 16.5244C15.7964 16.0628 14.6095 15.9969 13.3565 15.9969C12.1036 15.9969 10.9166 16.1288 10.1253 16.5244L10.3891 17.6454C11.1145 17.8433 12.1696 17.9752 13.3565 17.9752C14.5435 17.9752 15.5327 17.8433 16.324 17.6454L16.5877 16.5244ZM17.7088 13.6889C17.445 13.491 16.9175 13.2932 16.4559 13.2932C16.258 13.2932 16.0602 13.2932 15.8624 13.3591C15.8624 13.3591 15.4667 12.8316 14.5435 12.8316C14.2138 12.8316 13.95 12.8975 13.6862 13.0294V12.9635C13.6203 12.8316 13.4884 12.6997 13.3565 12.6997C13.2246 12.6997 13.0268 12.8975 13.0268 13.0294V13.0954C12.763 12.9635 12.4993 12.8975 12.1696 12.8975C11.2463 12.8975 10.8507 13.491 10.8507 13.4251C10.6529 13.3591 10.455 13.3591 10.2572 13.3591C7.22381 13.3591 8.7405 15.4034 8.7405 15.4034L9.07022 15.0077C8.34484 14.0845 9.00427 13.557 10.3231 13.557C10.521 13.557 10.6529 13.557 10.7847 13.6229C10.3231 14.2823 11.1804 14.8758 11.1804 14.8758L11.3782 14.5461C10.9166 14.2164 10.8507 13.0954 12.1696 13.0954C12.4993 13.0954 12.763 13.1613 13.0268 13.3591C13.0268 13.4251 12.9609 14.3483 12.8949 14.4802L13.4225 14.9418L13.95 14.4802C13.8841 14.2823 13.8181 13.4251 13.8181 13.3591C14.016 13.2273 14.3457 13.0954 14.6754 13.0954C16.0602 13.0954 16.0602 14.2164 15.4667 14.5461L15.6645 14.8758C15.6645 14.8758 16.3899 14.2823 16.0602 13.6229C16.1921 13.6229 16.3899 13.557 16.5218 13.557C18.1044 13.557 18.1704 14.7439 17.7747 15.0077L18.0385 15.4034C17.9066 15.4034 18.632 14.4802 17.7088 13.6889Z" fill="#C8B100"/>
<path d="M12.9629 12.4357C12.9629 12.2379 13.1607 12.04 13.3586 12.04C13.6223 12.04 13.7542 12.2379 13.7542 12.4357C13.7542 12.6335 13.5564 12.8314 13.3586 12.8314C13.1607 12.8314 12.9629 12.6335 12.9629 12.4357Z" fill="#005BBF"/>
<path d="M13.2267 11.3149V11.5128H13.0288V11.7106H13.2267V12.37H12.9629V12.5679H13.7542L13.8202 12.436L13.7542 12.37H13.4904V11.7106H13.6883V11.5128H13.4904V11.3149H13.2267Z" fill="#C8B100"/>
<path d="M13.358 17.8435C12.3029 17.8435 11.3797 17.7116 10.6543 17.5138C11.3797 17.316 12.3029 17.1841 13.358 17.1841C14.4131 17.1841 15.3363 17.316 16.0616 17.5138C15.4022 17.7116 14.4131 17.8435 13.358 17.8435Z" fill="#ED4C5C"/>
<path d="M13.4237 29.2509C12.1708 29.2509 10.9838 28.9212 9.9287 28.4596C9.13738 28.0639 8.67578 27.3385 8.67578 26.4813V23.316H18.1716V26.4813C18.1716 27.3385 17.6441 28.1298 16.9187 28.4596C15.8636 28.9871 14.6766 29.2509 13.4237 29.2509ZM13.3578 18.0405H18.1057V23.316H13.3578V18.0405Z" fill="white"/>
<path d="M13.4237 26.4812C13.4237 27.7341 12.3686 28.7233 11.0497 28.7233C9.73087 28.7233 8.67578 27.7341 8.67578 26.4812V23.3159H13.4237V26.4812Z" fill="#ED4C5C"/>
<path d="M9.66447 28.3281C9.79635 28.3941 9.99418 28.526 10.258 28.5919V23.1846H9.73041L9.66447 28.3281ZM8.60938 26.4158C8.60938 27.0752 8.87315 27.6028 9.13692 27.8665V23.1846H8.60938V26.4158Z" fill="#C8B100"/>
<path d="M10.7207 28.7238H11.2482V23.1846H10.7207V28.7238Z" fill="#C7B500"/>
<path d="M11.7773 28.5919C11.9752 28.526 12.2389 28.3941 12.3708 28.3281V23.1846H11.8433L11.7773 28.5919Z" fill="#C8B100"/>
<path d="M8.60938 18.0405H13.3573V23.316H8.60938V18.0405Z" fill="#ED4C5C"/>
<path d="M12.8945 27.8665C13.1583 27.6687 13.3561 27.2071 13.4221 26.6795V23.2505H12.8945V27.8665Z" fill="#C8B100"/>
<path d="M18.1708 23.3169V26.4821C18.1708 27.7351 17.1157 28.7242 15.7969 28.7242C14.478 28.7242 13.4229 27.7351 13.4229 26.4821V23.3169H18.1708ZM16.4563 18.9646C16.6541 19.3603 16.6541 20.3494 16.0606 20.1516C16.1925 20.2175 16.2585 20.6791 16.4563 20.9429C16.786 21.3386 17.1817 21.0089 17.1157 20.5472C16.9838 19.8219 17.0498 19.3603 17.1817 18.6349C17.1817 18.7008 17.5114 18.7008 17.6433 18.569C17.5773 18.7668 17.5114 19.0306 17.6433 19.0306C17.5114 19.2284 17.1817 19.5581 17.1157 19.7559C17.0498 20.2175 17.7752 21.0748 16.9838 21.2726C16.4563 21.4045 16.786 21.8002 16.9838 21.998C16.9838 21.998 16.7201 22.8553 16.852 22.7893C16.3244 22.9871 16.4563 22.5255 16.4563 22.5255C16.7201 21.7342 15.9947 21.6683 16.0606 21.5364C15.4012 21.4705 16.1266 22.1299 15.5331 22.1299C15.4012 22.1299 15.1374 22.2618 15.1374 22.2618C14.4121 22.1958 14.8077 21.5364 15.0715 21.6023C15.2693 21.6683 15.4671 21.998 15.4671 21.5364C15.4671 21.5364 15.1374 21.0088 15.9947 21.0088C15.665 21.0088 15.4671 20.7451 15.3353 20.4154C15.2034 20.4813 15.0055 20.811 14.2802 20.877C14.2802 20.877 14.0823 20.1516 14.2802 20.2835C14.5439 20.4154 14.6758 20.4154 14.9396 20.1516C14.8077 19.9538 14.0164 19.69 14.1483 19.2284C14.1483 19.0965 14.5439 18.8987 14.5439 18.8987C14.478 19.2284 14.6758 19.5581 15.0715 19.5581C15.599 19.624 15.4012 19.4262 15.4671 19.2943C15.5331 19.1624 15.9287 19.3603 15.7969 19.0306C15.7969 18.9646 15.3353 18.8987 15.4671 18.7008C15.7309 18.3711 16.1266 18.6349 16.4563 18.9646ZM13.4229 28.5923L13.291 28.2626L13.4229 27.8669L13.5548 28.2626L13.4229 28.5923Z" fill="#ED4C5C"/>
<path d="M10.0617 19.1618V19.4915H10.1936V19.7553H9.86385V20.4147H10.0617V21.8655H9.66602V22.5909H12.3697V21.8655H12.04V20.4147H12.1719V19.7553H11.8421V19.4915H12.04V19.1618H11.3805V19.4915H11.5124V19.7553H11.1827V18.964H11.3805V18.6343H10.6552V18.964H10.853V19.7553H10.5233V19.4915H10.6552V19.1618H10.0617ZM17.5133 27.2728V23.9757H14.0842V27.2728L15.6669 27.9982H15.8647L17.5133 27.2728ZM15.6669 24.2395V25.3605L14.5458 24.2395H15.6669ZM14.282 24.3054L15.6009 25.6243L14.282 26.9431V24.3054ZM14.4139 27.2069L15.6669 25.954V27.8004L14.4139 27.2069ZM15.8647 27.7344V25.888L17.1176 27.141L15.8647 27.7344ZM17.2495 26.9431L15.9306 25.6243L17.2495 24.3054V26.9431ZM15.8647 24.2395H16.9857L15.8647 25.3605V24.2395Z" fill="#C8B100"/>
<path d="M11.8438 23.2507C11.8438 22.2615 12.5032 21.5361 13.3604 21.5361C14.2177 21.5361 14.8771 22.3275 14.8771 23.2507C14.8771 24.1739 14.2177 24.9652 13.3604 24.9652C12.5032 24.9652 11.8438 24.2398 11.8438 23.2507Z" fill="#ED4C5C"/>
<path d="M12.3027 23.25C12.3027 22.5246 12.7643 21.9971 13.3578 21.9971C13.9513 21.9971 14.4129 22.5906 14.4129 23.25C14.4129 23.9754 13.9513 24.5029 13.3578 24.5029C12.8303 24.5689 12.3027 23.9754 12.3027 23.25Z" fill="#005BBF"/>
<path d="M12.8966 22.3926L12.6328 23.118L12.8306 23.1839L12.6988 23.4477H13.0944L12.9625 23.1839L13.1604 23.118L12.8966 22.3926ZM13.8857 22.3926L13.622 23.118L13.8198 23.1839L13.6879 23.4477H14.0836L14.0176 23.1839L14.2154 23.118L13.8857 22.3926ZM13.4241 23.2498L13.0944 23.9752L13.2922 24.0412L13.2263 24.3049H13.556L13.4901 24.0412L13.6879 23.9752L13.4241 23.2498Z" fill="#C8B100"/>
</svg>
