<svg  viewBox="0 0 24 24" fill="none" xmlns="http://www.w3.org/2000/svg">
<path d="M21.9513 18H2.05078C2.55228 12.9465 6.81578 9 12.0008 9C17.1868 9 21.4498 12.9465 21.9513 18Z" stroke="currentColor" stroke-width="2" stroke-linejoin="round"/>
<path d="M7 10L5 6.5M16.5 10L18.5 6.5" stroke="currentColor" stroke-width="2" stroke-linecap="round" stroke-linejoin="round"/>
<path d="M7.5 15.5C8.05228 15.5 8.5 15.0523 8.5 14.5C8.5 13.9477 8.05228 13.5 7.5 13.5C6.94772 13.5 6.5 13.9477 6.5 14.5C6.5 15.0523 6.94772 15.5 7.5 15.5Z" fill="currentColor"/>
<path d="M16.5 15.5C17.0523 15.5 17.5 15.0523 17.5 14.5C17.5 13.9477 17.0523 13.5 16.5 13.5C15.9477 13.5 15.5 13.9477 15.5 14.5C15.5 15.0523 15.9477 15.5 16.5 15.5Z" fill="currentColor"/>
</svg>
