<svg viewBox="0 0 24 24" fill="none" xmlns="http://www.w3.org/2000/svg">
<path d="M15.7774 8.2081C15.3044 8.1711 14.7974 8.2841 14.0194 8.5811C14.0844 8.5561 13.2774 8.8711 13.0504 8.9511C12.5484 9.1261 12.1354 9.2221 11.6724 9.2221C11.2144 9.2221 10.7924 9.1301 10.3074 8.9671C10.1376 8.90922 9.96917 8.84721 9.80238 8.7811L9.35338 8.6041C8.70538 8.3501 8.34138 8.2541 8.03838 8.2621C6.88538 8.2761 5.79538 8.9421 5.16138 10.0441C3.86938 12.2871 4.58538 16.3431 6.47438 19.0751C7.47938 20.5191 8.03038 21.0351 8.25138 21.0281C8.47338 21.0181 8.63738 20.9711 9.03538 20.8031L9.20138 20.7321C10.2074 20.3031 10.9114 20.1141 11.9724 20.1141C12.9934 20.1141 13.6754 20.3001 14.6414 20.7161L14.8094 20.7881C15.2064 20.9581 15.3494 20.9961 15.6014 20.9901C15.9584 20.9851 16.3994 20.5731 17.3784 19.1361C17.6464 18.7451 17.8834 18.3331 18.0884 17.9161C17.9538 17.8053 17.8233 17.6896 17.6974 17.5691C16.4074 16.3411 15.6104 14.6851 15.5884 12.6391C15.5675 11.1252 16.0655 9.64977 16.9994 8.4581C16.6075 8.31303 16.1957 8.22872 15.7784 8.2081M15.9334 6.2141C16.6414 6.2621 18.6694 6.4781 19.9894 8.4101C19.8814 8.4701 17.5654 9.8141 17.5894 12.6221C17.6254 15.9821 20.5294 17.0981 20.5654 17.1101C20.5414 17.1941 20.0974 18.7061 19.0294 20.2661C18.1054 21.6221 17.1454 22.9661 15.6334 22.9901C14.1454 23.0261 13.6654 22.1141 11.9734 22.1141C10.2694 22.1141 9.74138 22.9661 8.33738 23.0261C6.87338 23.0741 5.76938 21.5621 4.83338 20.2181C2.92538 17.4581 1.47338 12.4421 3.42938 9.0461C4.40138 7.3541 6.12938 6.2861 8.01338 6.2621C9.44138 6.2261 10.7974 7.2221 11.6734 7.2221C12.5374 7.2221 14.0854 6.0701 15.9334 6.2141ZM14.7934 4.3901C14.0134 5.3261 12.7414 6.0581 11.5054 5.9621C11.3374 4.6901 11.9614 3.3581 12.6814 2.5301C13.4854 1.5941 14.8294 0.898098 15.9454 0.850098C16.0894 2.1461 15.5734 3.4541 14.7934 4.3901Z" fill="currentColor"/>
</svg>
