<svg  viewBox="0 0 24 24" fill="none" xmlns="http://www.w3.org/2000/svg">
<path d="M10.365 19.833L12.295 16.491C12.197 16.497 12.0987 16.5 12 16.5C11.1954 16.5001 10.4055 16.2845 9.7125 15.8755C9.01954 15.4666 8.4489 14.8794 8.06 14.175L4.795 8.52C4.26663 9.61449 3.99449 10.8149 3.9992 12.0303C4.00392 13.2456 4.28537 14.4439 4.82222 15.5343C5.35906 16.6247 6.13719 17.5784 7.09757 18.3233C8.05795 19.0681 9.17535 19.5844 10.365 19.833ZM12.59 19.979C13.8021 19.8898 14.9779 19.5256 16.0282 18.9141C17.0786 18.3025 17.9757 17.4597 18.6516 16.4496C19.3275 15.4395 19.7644 14.2887 19.9291 13.0845C20.0937 11.8803 19.9819 10.6545 19.602 9.5H15.742C16.221 10.215 16.5 11.075 16.5 12C16.5 12.848 16.266 13.64 15.858 14.318L12.59 19.979ZM14.143 13.288L14.165 13.25C14.3834 12.8717 14.4988 12.4428 14.4998 12.006C14.5009 11.5693 14.3875 11.1398 14.1709 10.7605C13.9543 10.3812 13.6421 10.0653 13.2654 9.84416C12.8888 9.62304 12.4607 9.50447 12.024 9.50026C11.5872 9.49605 11.157 9.60634 10.7761 9.82015C10.3952 10.034 10.077 10.3438 9.85314 10.7189C9.62929 11.0939 9.50761 11.5211 9.50021 11.9578C9.49282 12.3945 9.59997 12.8256 9.811 13.208L9.835 13.25C10.0526 13.6268 10.3648 13.9403 10.7408 14.1595C11.1167 14.3786 11.5433 14.4959 11.9784 14.4996C12.4136 14.5034 12.8421 14.3935 13.2218 14.1808C13.6014 13.9681 13.9189 13.66 14.143 13.287M6.035 6.667L7.963 10.007C8.33494 9.25405 8.91016 8.62021 9.62359 8.17716C10.337 7.73412 11.1602 7.49955 12 7.5H18.615C17.8819 6.42091 16.8957 5.53773 15.7426 4.92762C14.5895 4.31752 13.3046 3.99903 12 4C10.8737 3.99873 9.75986 4.2359 8.73177 4.69591C7.70367 5.15592 6.78461 5.82836 6.035 6.669M12 22C6.477 22 2 17.523 2 12C2 6.477 6.477 2 12 2C17.523 2 22 6.477 22 12C22 17.523 17.523 22 12 22Z" fill="currentColor"/>
</svg>
