<svg  viewBox="0 0 24 24" fill="none" xmlns="http://www.w3.org/2000/svg">
<path fill-rule="evenodd" clip-rule="evenodd" d="M8.33125 4.888C9.33729 4.36925 10.4419 4.06982 11.5722 4.00946C12.7025 3.9491 13.8328 4.12919 14.8883 4.53785C15.9439 4.9465 16.9007 5.57442 17.6957 6.38014C18.4907 7.18586 19.1058 8.15106 19.5002 9.212L19.5162 9.285C19.7142 10.042 19.6812 11.365 19.1702 12.574C18.6752 13.744 17.7802 14.714 16.2972 15.021C13.3962 15.62 11.4892 13.696 10.9652 11.741C10.8192 11.1739 10.7116 10.5976 10.6432 10.016C10.5622 9.326 10.5632 8.8 10.6252 8.555C10.6782 8.34516 10.6617 8.12379 10.5782 7.92414C10.4946 7.72449 10.3485 7.55734 10.1619 7.44778C9.97523 7.33823 9.75807 7.29218 9.54302 7.31657C9.32797 7.34095 9.12664 7.43444 8.96925 7.583C7.97702 8.51809 7.23889 9.69016 6.82425 10.989C6.71247 10.3159 6.63702 9.63723 6.59825 8.956C6.53025 7.762 6.57625 6.553 6.80425 5.666C6.85862 5.45518 6.8427 5.23237 6.75891 5.03142C6.67511 4.83047 6.52803 4.66236 6.34 4.55262C6.15196 4.44287 5.93324 4.39749 5.71707 4.42337C5.50089 4.44925 5.29907 4.54497 5.14225 4.696C2.42225 7.313 1.35125 11.148 2.31825 14.516C3.43425 18.821 7.34525 22 11.9992 22C17.5222 22 21.9992 17.523 21.9992 12C21.9992 6.477 17.5222 2 11.9992 2C10.3482 2 8.78825 2.4 7.41325 3.112C7.29285 3.17005 7.1853 3.25164 7.09697 3.35196C7.00865 3.45229 6.94132 3.5693 6.89899 3.69608C6.85666 3.82287 6.84018 3.95685 6.85051 4.09012C6.86085 4.22338 6.8978 4.35322 6.95917 4.47196C7.02055 4.5907 7.10511 4.69593 7.20785 4.78143C7.31059 4.86693 7.42943 4.93097 7.55735 4.96976C7.68526 5.00854 7.81965 5.02129 7.95258 5.00725C8.0855 4.99321 8.21426 4.95266 8.33125 4.888ZM3.99925 12C3.99925 10.95 4.18725 9.922 4.59525 8.95C4.66225 10.281 4.85525 11.539 5.06025 12.306C5.42725 13.676 5.95725 15.085 7.05025 16.176C7.20811 16.3339 7.41428 16.4344 7.6359 16.4616C7.85752 16.4887 8.08185 16.4409 8.27314 16.3257C8.46444 16.2106 8.6117 16.0347 8.69145 15.8262C8.77121 15.6176 8.77889 15.3884 8.71325 15.175C8.32805 13.9141 8.36669 12.5618 8.82325 11.325C8.89025 11.675 8.96325 11.997 9.03325 12.259C9.75725 14.962 12.5052 17.846 16.7012 16.979C17.4946 16.822 18.2464 16.5008 18.9082 16.036C18.1138 17.3944 16.9365 18.4884 15.5236 19.1813C14.1107 19.8741 12.5249 20.1351 10.9645 19.9315C9.40403 19.7278 7.93827 19.0687 6.75046 18.0365C5.56265 17.0043 4.70552 15.6448 4.28625 14.128C4.13925 13.417 3.99925 12.732 3.99925 12Z" fill="currentColor"/>
</svg>
